<svg width="128" height="128" viewBox="0 0 128 128" fill="none" xmlns="http://www.w3.org/2000/svg">
<path d="M19.0363 113.876L9.03125 1.66089H118.967L108.951 113.859L63.9323 126.339L19.0363 113.876Z" fill="#E44D26"/>
<path d="M64 116.8L100.378 106.714L108.937 10.8359H64V116.8Z" fill="#F16529"/>
<path d="M63.9993 52.4551H45.7873L44.5293 38.3611H63.9993V24.5991H29.4883L29.8183 28.2911L33.2003 66.2181H63.9993V52.4551ZM63.9993 88.1981L63.9383 88.2151L48.6113 84.0751L47.6323 73.1001H33.8153L35.7433 94.7091L63.9363 102.535L63.9993 102.518V88.1981Z" fill="#EBEBEB"/>
<path d="M63.9512 52.4551V66.2181H80.8982L79.3012 84.0671L63.9512 88.2101V102.529L92.1662 94.7091L92.3732 92.3841L95.6072 56.1511L95.9422 52.4551H92.2342H63.9512ZM63.9512 24.5991V38.3611H97.1952L97.4712 35.2691L98.0992 28.2911L98.4282 24.5991H63.9512Z" fill="white"/>
</svg>
